<mxfile host="app.diagrams.net" modified="2024-05-13T09:43:23.932Z" agent="Mozilla/5.0 (X11; Linux x86_64) AppleWebKit/537.36 (KHTML, like Gecko) Chrome/123.0.0.0 Safari/537.36" etag="1Ox14oRcA9rMSHpwIPVC" version="24.4.0" type="google">
  <diagram name="Page-1" id="cegkDIOblt0eRo74aROd">
    <mxGraphModel grid="1" page="1" gridSize="10" guides="1" tooltips="1" connect="1" arrows="1" fold="1" pageScale="1" pageWidth="850" pageHeight="1100" math="0" shadow="0">
      <root>
        <mxCell id="0" />
        <mxCell id="1" parent="0" />
        <mxCell id="CUZnaHH6iHjA6N0w_GfL-21" value="" style="edgeStyle=orthogonalEdgeStyle;rounded=0;orthogonalLoop=1;jettySize=auto;entryX=0.5;entryY=1;entryDx=0;entryDy=0;dashed=1;strokeColor=#404040;fontColor=#404040;fontSize=14;strokeWidth=2;fontFamily=Roboto;fontSource=https%3A%2F%2Ffonts.googleapis.com%2Fcss%3Ffamily%3DRoboto;" edge="1" parent="1" target="CUZnaHH6iHjA6N0w_GfL-4">
          <mxGeometry relative="1" as="geometry">
            <mxPoint x="505" y="-890" as="sourcePoint" />
          </mxGeometry>
        </mxCell>
        <mxCell id="CUZnaHH6iHjA6N0w_GfL-22" value="" style="edgeStyle=orthogonalEdgeStyle;rounded=0;orthogonalLoop=1;jettySize=auto;entryX=0.5;entryY=1;entryDx=0;entryDy=0;dashed=1;strokeColor=#404040;fontColor=#404040;fontSize=14;strokeWidth=2;exitX=0.5;exitY=1;exitDx=0;exitDy=0;fontFamily=Roboto;fontSource=https%3A%2F%2Ffonts.googleapis.com%2Fcss%3Ffamily%3DRoboto;" edge="1" parent="1" source="CUZnaHH6iHjA6N0w_GfL-3" target="CUZnaHH6iHjA6N0w_GfL-7">
          <mxGeometry relative="1" as="geometry">
            <mxPoint x="185" y="-910" as="sourcePoint" />
            <mxPoint x="825.0000000000002" y="-920" as="targetPoint" />
            <Array as="points">
              <mxPoint x="185" y="-889.5" />
              <mxPoint x="665" y="-889.5" />
            </Array>
          </mxGeometry>
        </mxCell>
        <mxCell id="CUZnaHH6iHjA6N0w_GfL-3" value="manager" style="rounded=0;strokeColor=#404040;fontColor=#404040;fontSize=14;strokeWidth=2;fontFamily=Roboto;fontSource=https%3A%2F%2Ffonts.googleapis.com%2Fcss%3Ffamily%3DRoboto;fontStyle=1;fillColor=none;" vertex="1" parent="1">
          <mxGeometry x="125" y="-980" width="120" height="60" as="geometry" />
        </mxCell>
        <mxCell id="CUZnaHH6iHjA6N0w_GfL-4" value="cache-gc" style="rounded=0;strokeColor=#404040;fontColor=#404040;fontSize=14;strokeWidth=2;fontFamily=Roboto;fontSource=https%3A%2F%2Ffonts.googleapis.com%2Fcss%3Ffamily%3DRoboto;fillColor=none;" vertex="1" parent="1">
          <mxGeometry x="445" y="-980" width="120" height="60" as="geometry" />
        </mxCell>
        <mxCell id="CUZnaHH6iHjA6N0w_GfL-7" value="policy-loader" style="rounded=0;strokeColor=#404040;fontColor=#404040;fontSize=14;strokeWidth=2;fontFamily=Roboto;fontSource=https%3A%2F%2Ffonts.googleapis.com%2Fcss%3Ffamily%3DRoboto;fillColor=none;" vertex="1" parent="1">
          <mxGeometry x="605" y="-980" width="120" height="60" as="geometry" />
        </mxCell>
        <mxCell id="CUZnaHH6iHjA6N0w_GfL-9" value="supervisord" style="rounded=0;strokeColor=#404040;fontColor=#404040;fontSize=14;strokeWidth=2;fontFamily=Roboto;fontSource=https%3A%2F%2Ffonts.googleapis.com%2Fcss%3Ffamily%3DRoboto;fillColor=none;fontStyle=1" vertex="1" parent="1">
          <mxGeometry x="125" y="-1040" width="600" height="30" as="geometry" />
        </mxCell>
        <mxCell id="CUZnaHH6iHjA6N0w_GfL-10" value="kresd_N" style="rounded=0;strokeColor=#404040;fontColor=#404040;fontSize=14;strokeWidth=2;fontFamily=Roboto;fontSource=https%3A%2F%2Ffonts.googleapis.com%2Fcss%3Ffamily%3DRoboto;fillColor=none;" vertex="1" parent="1">
          <mxGeometry x="285" y="-980" width="120" height="60" as="geometry" />
        </mxCell>
        <mxCell id="CUZnaHH6iHjA6N0w_GfL-12" value="" style="endArrow=classic;rounded=0;entryX=0.5;entryY=0;entryDx=0;entryDy=0;strokeColor=#404040;fontColor=#404040;fontSize=14;strokeWidth=2;fontFamily=Roboto;fontSource=https%3A%2F%2Ffonts.googleapis.com%2Fcss%3Ffamily%3DRoboto;" edge="1" parent="1" target="CUZnaHH6iHjA6N0w_GfL-3">
          <mxGeometry width="50" height="50" relative="1" as="geometry">
            <mxPoint x="185" y="-1010" as="sourcePoint" />
            <mxPoint x="184.76" y="-980" as="targetPoint" />
          </mxGeometry>
        </mxCell>
        <mxCell id="CUZnaHH6iHjA6N0w_GfL-13" value="" style="endArrow=classic;rounded=0;entryX=0.5;entryY=0;entryDx=0;entryDy=0;strokeColor=#404040;fontColor=#404040;fontSize=14;strokeWidth=2;fontFamily=Roboto;fontSource=https%3A%2F%2Ffonts.googleapis.com%2Fcss%3Ffamily%3DRoboto;" edge="1" parent="1">
          <mxGeometry width="50" height="50" relative="1" as="geometry">
            <mxPoint x="344.76" y="-1010" as="sourcePoint" />
            <mxPoint x="344.76" y="-980" as="targetPoint" />
          </mxGeometry>
        </mxCell>
        <mxCell id="CUZnaHH6iHjA6N0w_GfL-16" value="" style="endArrow=classic;rounded=0;entryX=0.5;entryY=0;entryDx=0;entryDy=0;strokeColor=#404040;fontColor=#404040;fontSize=14;strokeWidth=2;fontFamily=Roboto;fontSource=https%3A%2F%2Ffonts.googleapis.com%2Fcss%3Ffamily%3DRoboto;" edge="1" parent="1">
          <mxGeometry width="50" height="50" relative="1" as="geometry">
            <mxPoint x="504.76" y="-1010" as="sourcePoint" />
            <mxPoint x="504.76" y="-980" as="targetPoint" />
          </mxGeometry>
        </mxCell>
        <mxCell id="CUZnaHH6iHjA6N0w_GfL-17" value="" style="endArrow=classic;rounded=0;entryX=0.5;entryY=0;entryDx=0;entryDy=0;strokeColor=#404040;fontColor=#404040;fontSize=14;strokeWidth=2;fontFamily=Roboto;fontSource=https%3A%2F%2Ffonts.googleapis.com%2Fcss%3Ffamily%3DRoboto;" edge="1" parent="1">
          <mxGeometry width="50" height="50" relative="1" as="geometry">
            <mxPoint x="664.76" y="-1010" as="sourcePoint" />
            <mxPoint x="664.76" y="-980" as="targetPoint" />
          </mxGeometry>
        </mxCell>
        <mxCell id="CUZnaHH6iHjA6N0w_GfL-19" value="" style="endArrow=none;dashed=1;rounded=0;startArrow=classic;startFill=1;strokeColor=#404040;fontColor=#404040;fontSize=14;strokeWidth=2;fontFamily=Roboto;fontSource=https%3A%2F%2Ffonts.googleapis.com%2Fcss%3Ffamily%3DRoboto;" edge="1" parent="1">
          <mxGeometry width="50" height="50" relative="1" as="geometry">
            <mxPoint x="235" y="-1010" as="sourcePoint" />
            <mxPoint x="235" y="-980" as="targetPoint" />
          </mxGeometry>
        </mxCell>
        <mxCell id="CUZnaHH6iHjA6N0w_GfL-24" value="" style="edgeStyle=orthogonalEdgeStyle;rounded=0;orthogonalLoop=1;jettySize=auto;entryX=0.5;entryY=1;entryDx=0;entryDy=0;dashed=1;strokeColor=#404040;fontColor=#404040;fontSize=14;strokeWidth=2;fontFamily=Roboto;fontSource=https%3A%2F%2Ffonts.googleapis.com%2Fcss%3Ffamily%3DRoboto;" edge="1" parent="1">
          <mxGeometry relative="1" as="geometry">
            <mxPoint x="345" y="-890" as="sourcePoint" />
            <mxPoint x="344.83000000000004" y="-920" as="targetPoint" />
          </mxGeometry>
        </mxCell>
        <mxCell id="CUZnaHH6iHjA6N0w_GfL-25" value="configuration..." style="text;align=center;verticalAlign=middle;resizable=0;points=[];autosize=1;strokeColor=none;fillColor=none;fontColor=#404040;fontStyle=2;fontFamily=Roboto;fontSource=https%3A%2F%2Ffonts.googleapis.com%2Fcss%3Ffamily%3DRoboto;fontSize=14;" vertex="1" parent="1">
          <mxGeometry x="365" y="-920" width="120" height="30" as="geometry" />
        </mxCell>
        <mxCell id="CUZnaHH6iHjA6N0w_GfL-26" value="control..." style="text;align=center;verticalAlign=middle;resizable=0;points=[];autosize=1;strokeColor=none;fillColor=none;fontColor=#404040;fontStyle=2;fontFamily=Roboto;fontSource=https%3A%2F%2Ffonts.googleapis.com%2Fcss%3Ffamily%3DRoboto;fontSize=14;" vertex="1" parent="1">
          <mxGeometry x="230" y="-1010" width="80" height="30" as="geometry" />
        </mxCell>
        <mxCell id="FZnD3hXAEdhVNf1liAt--10" value="supervision..." style="text;align=center;verticalAlign=middle;resizable=0;points=[];autosize=1;strokeColor=none;fillColor=none;fontColor=#404040;fontStyle=2;fontFamily=Roboto;fontSource=https%3A%2F%2Ffonts.googleapis.com%2Fcss%3Ffamily%3DRoboto;fontSize=14;" vertex="1" parent="1">
          <mxGeometry x="370" y="-1010" width="110" height="30" as="geometry" />
        </mxCell>
      </root>
    </mxGraphModel>
  </diagram>
</mxfile>
